<mxfile host="65bd71144e">
    <diagram id="XtzhtT3zzimq-qf2pkNV" name="Infrastructure">
        <mxGraphModel dx="958" dy="798" grid="1" gridSize="10" guides="1" tooltips="1" connect="1" arrows="1" fold="1" page="1" pageScale="1" pageWidth="850" pageHeight="1100" math="0" shadow="0">
            <root>
                <mxCell id="0"/>
                <mxCell id="1" parent="0"/>
                <mxCell id="Zh6fYYKYG1eAUBMf7m0V-9" style="edgeStyle=none;html=1;entryX=0;entryY=0.5;entryDx=0;entryDy=0;" parent="1" target="Zh6fYYKYG1eAUBMf7m0V-2" edge="1">
                    <mxGeometry relative="1" as="geometry">
                        <mxPoint x="140" y="395" as="sourcePoint"/>
                    </mxGeometry>
                </mxCell>
                <mxCell id="Zh6fYYKYG1eAUBMf7m0V-1" value="Credential screen" style="whiteSpace=wrap;html=1;aspect=fixed;" parent="1" vertex="1">
                    <mxGeometry x="60" y="355" width="80" height="80" as="geometry"/>
                </mxCell>
                <mxCell id="Zh6fYYKYG1eAUBMf7m0V-10" style="edgeStyle=none;html=1;entryX=0;entryY=0.5;entryDx=0;entryDy=0;" parent="1" source="Zh6fYYKYG1eAUBMf7m0V-2" target="Zh6fYYKYG1eAUBMf7m0V-4" edge="1">
                    <mxGeometry relative="1" as="geometry"/>
                </mxCell>
                <mxCell id="Zh6fYYKYG1eAUBMf7m0V-11" style="edgeStyle=none;html=1;entryX=0;entryY=0.5;entryDx=0;entryDy=0;" parent="1" source="Zh6fYYKYG1eAUBMf7m0V-2" target="Zh6fYYKYG1eAUBMf7m0V-5" edge="1">
                    <mxGeometry relative="1" as="geometry"/>
                </mxCell>
                <mxCell id="Zh6fYYKYG1eAUBMf7m0V-12" style="edgeStyle=none;html=1;entryX=0;entryY=0.5;entryDx=0;entryDy=0;" parent="1" source="Zh6fYYKYG1eAUBMf7m0V-2" target="Zh6fYYKYG1eAUBMf7m0V-6" edge="1">
                    <mxGeometry relative="1" as="geometry"/>
                </mxCell>
                <mxCell id="Zh6fYYKYG1eAUBMf7m0V-13" style="edgeStyle=none;html=1;entryX=0;entryY=0.5;entryDx=0;entryDy=0;" parent="1" source="Zh6fYYKYG1eAUBMf7m0V-2" target="Zh6fYYKYG1eAUBMf7m0V-7" edge="1">
                    <mxGeometry relative="1" as="geometry"/>
                </mxCell>
                <mxCell id="Zh6fYYKYG1eAUBMf7m0V-2" value="Inventori screen" style="whiteSpace=wrap;html=1;aspect=fixed;" parent="1" vertex="1">
                    <mxGeometry x="190" y="355" width="80" height="80" as="geometry"/>
                </mxCell>
                <mxCell id="Zh6fYYKYG1eAUBMf7m0V-14" style="edgeStyle=none;html=1;entryX=0;entryY=0.5;entryDx=0;entryDy=0;exitX=1;exitY=0.5;exitDx=0;exitDy=0;" parent="1" source="Zh6fYYKYG1eAUBMf7m0V-4" target="Zh6fYYKYG1eAUBMf7m0V-8" edge="1">
                    <mxGeometry relative="1" as="geometry"/>
                </mxCell>
                <mxCell id="Zh6fYYKYG1eAUBMf7m0V-4" value="Network" style="rounded=1;whiteSpace=wrap;html=1;" parent="1" vertex="1">
                    <mxGeometry x="330" y="305" width="120" height="30" as="geometry"/>
                </mxCell>
                <mxCell id="Zh6fYYKYG1eAUBMf7m0V-15" style="edgeStyle=none;html=1;entryX=0;entryY=0.5;entryDx=0;entryDy=0;" parent="1" source="Zh6fYYKYG1eAUBMf7m0V-5" target="Zh6fYYKYG1eAUBMf7m0V-8" edge="1">
                    <mxGeometry relative="1" as="geometry"/>
                </mxCell>
                <mxCell id="Zh6fYYKYG1eAUBMf7m0V-5" value="Compute" style="rounded=1;whiteSpace=wrap;html=1;" parent="1" vertex="1">
                    <mxGeometry x="330" y="355" width="120" height="30" as="geometry"/>
                </mxCell>
                <mxCell id="Zh6fYYKYG1eAUBMf7m0V-16" style="edgeStyle=none;html=1;entryX=0;entryY=0.5;entryDx=0;entryDy=0;" parent="1" source="Zh6fYYKYG1eAUBMf7m0V-6" target="Zh6fYYKYG1eAUBMf7m0V-8" edge="1">
                    <mxGeometry relative="1" as="geometry"/>
                </mxCell>
                <mxCell id="Zh6fYYKYG1eAUBMf7m0V-6" value="Databases" style="rounded=1;whiteSpace=wrap;html=1;" parent="1" vertex="1">
                    <mxGeometry x="330" y="405" width="120" height="30" as="geometry"/>
                </mxCell>
                <mxCell id="Zh6fYYKYG1eAUBMf7m0V-17" style="edgeStyle=none;html=1;entryX=0;entryY=0.5;entryDx=0;entryDy=0;exitX=1;exitY=0.5;exitDx=0;exitDy=0;" parent="1" source="Zh6fYYKYG1eAUBMf7m0V-7" target="Zh6fYYKYG1eAUBMf7m0V-8" edge="1">
                    <mxGeometry relative="1" as="geometry"/>
                </mxCell>
                <mxCell id="Zh6fYYKYG1eAUBMf7m0V-7" value="Storage" style="rounded=1;whiteSpace=wrap;html=1;" parent="1" vertex="1">
                    <mxGeometry x="330" y="455" width="120" height="30" as="geometry"/>
                </mxCell>
                <mxCell id="Zh6fYYKYG1eAUBMf7m0V-8" value="Backend" style="whiteSpace=wrap;html=1;aspect=fixed;" parent="1" vertex="1">
                    <mxGeometry x="530" y="305" width="180" height="180" as="geometry"/>
                </mxCell>
                <mxCell id="1dYTxGlTeWxTxaL1HX5Y-6" style="edgeStyle=none;html=1;" parent="1" source="1dYTxGlTeWxTxaL1HX5Y-1" target="1dYTxGlTeWxTxaL1HX5Y-2" edge="1">
                    <mxGeometry relative="1" as="geometry"/>
                </mxCell>
                <mxCell id="1dYTxGlTeWxTxaL1HX5Y-1" value="Credentials" style="whiteSpace=wrap;html=1;aspect=fixed;" parent="1" vertex="1">
                    <mxGeometry x="60" y="50" width="80" height="80" as="geometry"/>
                </mxCell>
                <mxCell id="1dYTxGlTeWxTxaL1HX5Y-4" style="edgeStyle=none;html=1;entryX=0.5;entryY=0;entryDx=0;entryDy=0;" parent="1" source="1dYTxGlTeWxTxaL1HX5Y-2" target="1dYTxGlTeWxTxaL1HX5Y-3" edge="1">
                    <mxGeometry relative="1" as="geometry"/>
                </mxCell>
                <mxCell id="1dYTxGlTeWxTxaL1HX5Y-5" style="edgeStyle=none;html=1;" parent="1" source="1dYTxGlTeWxTxaL1HX5Y-2" target="1dYTxGlTeWxTxaL1HX5Y-1" edge="1">
                    <mxGeometry relative="1" as="geometry"/>
                </mxCell>
                <mxCell id="1dYTxGlTeWxTxaL1HX5Y-2" value="Iventori screen" style="whiteSpace=wrap;html=1;aspect=fixed;" parent="1" vertex="1">
                    <mxGeometry x="190" y="50" width="80" height="80" as="geometry"/>
                </mxCell>
                <mxCell id="1dYTxGlTeWxTxaL1HX5Y-3" value="Secrets and resources state" style="whiteSpace=wrap;html=1;aspect=fixed;" parent="1" vertex="1">
                    <mxGeometry x="190" y="160" width="80" height="80" as="geometry"/>
                </mxCell>
                <mxCell id="1dYTxGlTeWxTxaL1HX5Y-8" value="Won't do multi account support for version 1&amp;nbsp;" style="text;html=1;strokeColor=none;fillColor=none;align=center;verticalAlign=middle;whiteSpace=wrap;rounded=0;" parent="1" vertex="1">
                    <mxGeometry x="320" y="120" width="240" height="40" as="geometry"/>
                </mxCell>
            </root>
        </mxGraphModel>
    </diagram>
    <diagram id="5mrInEAR79RjGtMQWb4p" name="Frontend">
        <mxGraphModel dx="912" dy="760" grid="1" gridSize="12" guides="1" tooltips="1" connect="1" arrows="1" fold="1" page="1" pageScale="1" pageWidth="850" pageHeight="1100" math="0" shadow="0">
            <root>
                <mxCell id="0"/>
                <mxCell id="1" parent="0"/>
                <mxCell id="g7CoydQ4F3PsdjzvhToH-1719" style="edgeStyle=none;html=1;entryX=0.5;entryY=0;entryDx=0;entryDy=0;" edge="1" parent="1" source="2" target="g7CoydQ4F3PsdjzvhToH-1718">
                    <mxGeometry relative="1" as="geometry"/>
                </mxCell>
                <mxCell id="g7CoydQ4F3PsdjzvhToH-1720" style="edgeStyle=none;html=1;entryX=0.5;entryY=0;entryDx=0;entryDy=0;" edge="1" parent="1" source="2" target="g7CoydQ4F3PsdjzvhToH-1717">
                    <mxGeometry relative="1" as="geometry"/>
                </mxCell>
                <mxCell id="2" value="App" style="rounded=0;whiteSpace=wrap;html=1;fillColor=#e3c800;fontColor=#000000;strokeColor=#B09500;opacity=50;fontStyle=1" parent="1" vertex="1">
                    <mxGeometry x="185" y="60" width="120" height="60" as="geometry"/>
                </mxCell>
                <mxCell id="24" style="edgeStyle=none;html=1;entryX=0.5;entryY=0;entryDx=0;entryDy=0;" parent="1" source="3" target="23" edge="1">
                    <mxGeometry relative="1" as="geometry"/>
                </mxCell>
                <mxCell id="3" value="AWS account" style="rounded=0;whiteSpace=wrap;html=1;fillColor=#60a917;fontColor=#ffffff;strokeColor=#2D7600;opacity=50;" parent="1" vertex="1">
                    <mxGeometry x="505" y="744" width="120" height="60" as="geometry"/>
                </mxCell>
                <mxCell id="16" style="edgeStyle=none;html=1;entryX=0.5;entryY=0;entryDx=0;entryDy=0;" parent="1" source="4" target="5" edge="1">
                    <mxGeometry relative="1" as="geometry"/>
                </mxCell>
                <mxCell id="4" value="VPC" style="rounded=0;whiteSpace=wrap;html=1;fillColor=#60a917;fontColor=#ffffff;strokeColor=#2D7600;opacity=50;" parent="1" vertex="1">
                    <mxGeometry x="505" y="954" width="120" height="60" as="geometry"/>
                </mxCell>
                <mxCell id="5" value="Subnets" style="rounded=0;whiteSpace=wrap;html=1;fillColor=#60a917;fontColor=#ffffff;strokeColor=#2D7600;opacity=50;" parent="1" vertex="1">
                    <mxGeometry x="400" y="1134" width="120" height="60" as="geometry"/>
                </mxCell>
                <mxCell id="13" style="edgeStyle=none;html=1;entryX=0;entryY=0.5;entryDx=0;entryDy=0;" parent="1" source="6" target="4" edge="1">
                    <mxGeometry relative="1" as="geometry"/>
                </mxCell>
                <mxCell id="21" style="edgeStyle=none;html=1;entryX=0.5;entryY=1;entryDx=0;entryDy=0;" parent="1" source="6" target="20" edge="1">
                    <mxGeometry relative="1" as="geometry"/>
                </mxCell>
                <mxCell id="6" value="Internet Gateway" style="rounded=0;whiteSpace=wrap;html=1;" parent="1" vertex="1">
                    <mxGeometry x="180" y="954" width="120" height="60" as="geometry"/>
                </mxCell>
                <mxCell id="10" style="edgeStyle=none;html=1;entryX=0.5;entryY=1;entryDx=0;entryDy=0;" parent="1" source="7" target="5" edge="1">
                    <mxGeometry relative="1" as="geometry"/>
                </mxCell>
                <mxCell id="19" style="edgeStyle=none;html=1;entryX=1;entryY=0.5;entryDx=0;entryDy=0;exitX=0.5;exitY=0;exitDx=0;exitDy=0;" parent="1" source="7" target="9" edge="1">
                    <mxGeometry relative="1" as="geometry"/>
                </mxCell>
                <mxCell id="7" value="EC2 instances" style="rounded=0;whiteSpace=wrap;html=1;fillColor=#60a917;fontColor=#ffffff;strokeColor=#2D7600;opacity=50;" parent="1" vertex="1">
                    <mxGeometry x="320" y="1294" width="120" height="60" as="geometry"/>
                </mxCell>
                <mxCell id="22" style="edgeStyle=none;html=1;entryX=1;entryY=0.5;entryDx=0;entryDy=0;" parent="1" source="8" target="4" edge="1">
                    <mxGeometry relative="1" as="geometry"/>
                </mxCell>
                <mxCell id="8" value="Lambda" style="rounded=0;whiteSpace=wrap;html=1;" parent="1" vertex="1">
                    <mxGeometry x="850" y="1145" width="120" height="60" as="geometry"/>
                </mxCell>
                <mxCell id="12" style="edgeStyle=none;html=1;entryX=0;entryY=0.5;entryDx=0;entryDy=0;exitX=1;exitY=0.5;exitDx=0;exitDy=0;" parent="1" source="9" target="4" edge="1">
                    <mxGeometry relative="1" as="geometry"/>
                </mxCell>
                <mxCell id="9" value="EKS" style="rounded=0;whiteSpace=wrap;html=1;" parent="1" vertex="1">
                    <mxGeometry x="180" y="1134" width="120" height="60" as="geometry"/>
                </mxCell>
                <mxCell id="20" value="Internet" style="rounded=0;whiteSpace=wrap;html=1;fillColor=#0050ef;fontColor=#ffffff;strokeColor=#001DBC;opacity=50;" parent="1" vertex="1">
                    <mxGeometry x="180" y="794" width="120" height="60" as="geometry"/>
                </mxCell>
                <mxCell id="25" style="edgeStyle=none;html=1;entryX=0.5;entryY=0;entryDx=0;entryDy=0;" parent="1" source="23" target="4" edge="1">
                    <mxGeometry relative="1" as="geometry"/>
                </mxCell>
                <mxCell id="23" value="Region" style="rounded=0;whiteSpace=wrap;html=1;fillColor=#60a917;fontColor=#ffffff;strokeColor=#2D7600;opacity=50;" parent="1" vertex="1">
                    <mxGeometry x="505" y="844" width="120" height="60" as="geometry"/>
                </mxCell>
                <mxCell id="29" style="edgeStyle=none;html=1;entryX=1;entryY=0.5;entryDx=0;entryDy=0;" parent="1" source="28" target="4" edge="1">
                    <mxGeometry relative="1" as="geometry"/>
                </mxCell>
                <mxCell id="28" value="RDS" style="rounded=0;whiteSpace=wrap;html=1;" parent="1" vertex="1">
                    <mxGeometry x="850" y="1045" width="120" height="60" as="geometry"/>
                </mxCell>
                <mxCell id="31" style="edgeStyle=none;html=1;entryX=1;entryY=0.5;entryDx=0;entryDy=0;" parent="1" source="30" target="23" edge="1">
                    <mxGeometry relative="1" as="geometry"/>
                </mxCell>
                <mxCell id="30" value="DynamoDB" style="rounded=0;whiteSpace=wrap;html=1;" parent="1" vertex="1">
                    <mxGeometry x="850" y="945" width="120" height="60" as="geometry"/>
                </mxCell>
                <mxCell id="33" style="edgeStyle=none;html=1;entryX=1;entryY=0.5;entryDx=0;entryDy=0;" parent="1" source="32" target="23" edge="1">
                    <mxGeometry relative="1" as="geometry"/>
                </mxCell>
                <mxCell id="32" value="S3" style="rounded=0;whiteSpace=wrap;html=1;" parent="1" vertex="1">
                    <mxGeometry x="850" y="845" width="120" height="60" as="geometry"/>
                </mxCell>
                <mxCell id="09u0dIIKucZhLIxBTfJg-34" style="edgeStyle=none;html=1;" edge="1" parent="1" source="09u0dIIKucZhLIxBTfJg-33">
                    <mxGeometry relative="1" as="geometry">
                        <mxPoint x="630" y="874" as="targetPoint"/>
                    </mxGeometry>
                </mxCell>
                <mxCell id="09u0dIIKucZhLIxBTfJg-33" value="IAM" style="rounded=0;whiteSpace=wrap;html=1;" vertex="1" parent="1">
                    <mxGeometry x="850" y="745" width="120" height="60" as="geometry"/>
                </mxCell>
                <mxCell id="09u0dIIKucZhLIxBTfJg-35" value="Route table" style="rounded=0;whiteSpace=wrap;html=1;" vertex="1" parent="1">
                    <mxGeometry x="330" y="954" width="120" height="60" as="geometry"/>
                </mxCell>
                <mxCell id="g7CoydQ4F3PsdjzvhToH-1723" style="edgeStyle=orthogonalEdgeStyle;curved=1;html=1;startArrow=none;startFill=0;" edge="1" parent="1" source="g7CoydQ4F3PsdjzvhToH-1717" target="g7CoydQ4F3PsdjzvhToH-1721">
                    <mxGeometry relative="1" as="geometry"/>
                </mxCell>
                <mxCell id="g7CoydQ4F3PsdjzvhToH-1725" style="edgeStyle=orthogonalEdgeStyle;curved=1;html=1;" edge="1" parent="1" source="g7CoydQ4F3PsdjzvhToH-1717" target="g7CoydQ4F3PsdjzvhToH-1724">
                    <mxGeometry relative="1" as="geometry"/>
                </mxCell>
                <mxCell id="g7CoydQ4F3PsdjzvhToH-1727" style="edgeStyle=orthogonalEdgeStyle;curved=1;html=1;entryX=0.815;entryY=-0.033;entryDx=0;entryDy=0;entryPerimeter=0;startArrow=none;startFill=0;exitX=1;exitY=0.5;exitDx=0;exitDy=0;" edge="1" parent="1" source="g7CoydQ4F3PsdjzvhToH-1717" target="g7CoydQ4F3PsdjzvhToH-1724">
                    <mxGeometry relative="1" as="geometry"/>
                </mxCell>
                <mxCell id="g7CoydQ4F3PsdjzvhToH-1717" value="Inventori screen component" style="rounded=0;whiteSpace=wrap;html=1;fillColor=#008a00;fontColor=#ffffff;strokeColor=#005700;opacity=50;" vertex="1" parent="1">
                    <mxGeometry x="305" y="172" width="120" height="60" as="geometry"/>
                </mxCell>
                <mxCell id="g7CoydQ4F3PsdjzvhToH-1718" value="Credentials screen component" style="rounded=0;whiteSpace=wrap;html=1;fillColor=#008a00;fontColor=#ffffff;strokeColor=#005700;opacity=50;" vertex="1" parent="1">
                    <mxGeometry x="65" y="172" width="120" height="60" as="geometry"/>
                </mxCell>
                <mxCell id="g7CoydQ4F3PsdjzvhToH-1726" style="edgeStyle=orthogonalEdgeStyle;curved=1;html=1;entryX=0;entryY=0.5;entryDx=0;entryDy=0;startArrow=none;startFill=0;exitX=0.25;exitY=0;exitDx=0;exitDy=0;" edge="1" parent="1" source="g7CoydQ4F3PsdjzvhToH-1721" target="g7CoydQ4F3PsdjzvhToH-1717">
                    <mxGeometry relative="1" as="geometry"/>
                </mxCell>
                <mxCell id="g7CoydQ4F3PsdjzvhToH-1721" value="Settings&lt;br&gt;&amp;nbsp;component" style="rounded=0;whiteSpace=wrap;html=1;" vertex="1" parent="1">
                    <mxGeometry x="192" y="340" width="120" height="60" as="geometry"/>
                </mxCell>
                <mxCell id="g7CoydQ4F3PsdjzvhToH-1729" style="edgeStyle=orthogonalEdgeStyle;curved=1;html=1;entryX=0.5;entryY=0;entryDx=0;entryDy=0;startArrow=none;startFill=0;" edge="1" parent="1" source="g7CoydQ4F3PsdjzvhToH-1724" target="3">
                    <mxGeometry relative="1" as="geometry"/>
                </mxCell>
                <mxCell id="g7CoydQ4F3PsdjzvhToH-1724" value="Resources component" style="rounded=0;whiteSpace=wrap;html=1;" vertex="1" parent="1">
                    <mxGeometry x="425" y="340" width="120" height="60" as="geometry"/>
                </mxCell>
                <mxCell id="g7CoydQ4F3PsdjzvhToH-1731" value="Account state&lt;br&gt;Region state&lt;br&gt;Credentials state" style="text;html=1;strokeColor=none;fillColor=none;align=left;verticalAlign=middle;whiteSpace=wrap;rounded=0;opacity=50;" vertex="1" parent="1">
                    <mxGeometry x="96" y="372" width="115" height="72" as="geometry"/>
                </mxCell>
            </root>
        </mxGraphModel>
    </diagram>
</mxfile>